<?xml version="1.0" standalone="no"?>
<!DOCTYPE svg PUBLIC "-//W3C//DTD SVG 20010904//EN"
 "http://www.w3.org/TR/2001/REC-SVG-20010904/DTD/svg10.dtd">
<svg version="1.0" xmlns="http://www.w3.org/2000/svg"
 width="512.000000pt" height="512.000000pt" viewBox="0 0 512.000000 512.000000"
 preserveAspectRatio="xMidYMid meet">

<g transform="translate(0.000000,512.000000) scale(0.100000,-0.100000)"
fill="#5F41BE" stroke="none">
<path d="M1654 4502 c-70 -24 -124 -70 -160 -134 l-29 -53 -3 -607 c-1 -335
-5 -608 -7 -608 -28 0 -427 -64 -446 -71 -15 -6 -38 -23 -51 -37 -41 -44 -851
-1294 -866 -1337 -22 -58 -9 -110 36 -155 20 -20 251 -175 512 -345 l475 -310
60 0 c83 0 107 20 202 166 l78 122 5 -164 c6 -190 19 -230 97 -298 85 -76 10
-72 1238 -69 l1100 3 48 25 c55 27 96 70 129 133 l23 42 3 1425 2 1424 -430
431 -430 430 -767 2 c-713 2 -772 1 -819 -15z m1468 -489 c3 -343 3 -349 26
-385 13 -20 40 -47 60 -60 36 -23 42 -23 385 -26 l347 -3 0 -1343 0 -1343 -23
-34 c-12 -18 -34 -39 -47 -46 -20 -10 -260 -13 -1098 -13 l-1072 0 -38 34 -37
34 -3 279 -2 278 270 414 c153 236 272 428 276 446 4 25 -21 131 -100 415 -58
210 -113 396 -123 413 -10 18 -39 42 -63 55 -47 24 -55 25 -207 6 l-53 -7 0
569 c0 553 1 570 20 602 39 63 16 61 782 62 l697 0 3 -347z m441 -311 c-142
-1 -263 0 -270 3 -10 3 -13 65 -13 272 l0 268 270 -270 270 -270 -257 -3z
m-1742 -754 c6 -24 49 -180 96 -348 46 -168 85 -312 86 -320 0 -12 -796 -1245
-822 -1273 -5 -5 -844 529 -938 598 -4 2 806 1247 823 1264 8 9 134 32 361 66
191 29 356 53 365 54 12 1 21 -12 29 -41z"/>
<path d="M1854 4140 c-28 -11 -54 -48 -54 -76 0 -12 9 -33 21 -48 l20 -26 208
0 c204 0 208 0 229 23 40 43 25 107 -29 126 -38 13 -364 14 -395 1z"/>
<path d="M2464 4136 c-41 -18 -57 -61 -39 -103 17 -39 29 -43 135 -43 84 0 90
1 109 26 27 35 26 67 -3 101 -21 25 -31 28 -97 30 -48 2 -85 -2 -105 -11z"/>
<path d="M1825 3855 c-16 -15 -25 -36 -25 -55 0 -19 9 -40 25 -55 22 -23 32
-25 109 -25 75 0 88 3 112 23 20 17 27 33 27 57 0 24 -7 40 -27 57 -24 20 -37
23 -112 23 -77 0 -87 -2 -109 -25z"/>
<path d="M2215 3855 c-16 -15 -25 -36 -25 -55 0 -19 9 -40 25 -55 24 -25 25
-25 225 -25 200 0 201 0 225 25 16 15 25 36 25 55 0 19 -9 40 -25 55 -24 25
-25 25 -225 25 -200 0 -201 0 -225 -25z"/>
<path d="M2725 3464 c-38 -8 -113 -35 -164 -61 -78 -38 -110 -61 -182 -132
-74 -73 -93 -100 -132 -181 -60 -126 -72 -182 -71 -320 2 -198 58 -326 219
-500 61 -66 94 -110 91 -120 -2 -8 -12 -35 -21 -60 -28 -75 -3 -172 59 -229
19 -18 26 -35 26 -60 0 -78 69 -179 154 -224 36 -19 56 -22 166 -22 109 0 130
3 165 22 85 46 155 146 155 224 0 24 7 42 21 55 12 10 33 39 47 63 31 54 35
147 9 198 -9 18 -17 36 -17 41 0 6 38 51 85 101 140 149 192 245 222 406 40
220 -30 438 -197 606 -72 73 -100 93 -180 132 -151 74 -298 93 -455 61z m264
-159 c306 -73 491 -399 391 -691 -29 -84 -63 -136 -147 -228 -42 -44 -85 -93
-96 -108 -12 -17 -30 -28 -44 -28 l-23 0 0 159 0 158 51 7 c184 25 259 213
135 341 -129 135 -346 37 -346 -157 0 -26 -3 -28 -40 -28 -37 0 -40 2 -40 28
0 108 -76 203 -175 218 -138 20 -259 -111 -225 -244 22 -91 87 -144 189 -158
l51 -7 0 -158 0 -159 -24 0 c-15 0 -33 12 -49 33 -14 19 -60 71 -103 118 -92
99 -138 190 -156 303 -28 182 52 384 196 495 137 106 297 143 455 106z m-335
-501 c21 -20 21 -63 0 -71 -20 -7 -63 12 -70 32 -7 17 22 55 42 55 7 0 20 -7
28 -16z m488 -1 c10 -9 18 -22 18 -29 0 -18 -40 -44 -67 -44 -19 0 -23 5 -23
29 0 30 22 61 42 61 6 0 20 -7 30 -17z m-232 -393 l0 -160 -40 0 -40 0 0 160
0 160 40 0 40 0 0 -160z m199 -346 c27 -34 26 -50 -4 -79 -24 -25 -24 -25
-235 -25 -211 0 -211 0 -235 25 -30 29 -31 45 -4 79 l20 26 219 0 219 0 20
-26z m-94 -294 c-22 -43 -63 -60 -145 -60 -82 0 -123 17 -145 60 l-16 30 161
0 161 0 -16 -30z"/>
<path d="M1991 1389 c-52 -21 -66 -77 -30 -123 l20 -26 393 0 393 0 21 23 c22
23 28 60 16 92 -17 42 -45 45 -426 44 -208 0 -373 -4 -387 -10z"/>
<path d="M3122 1390 c-50 -21 -58 -115 -12 -140 11 -6 116 -10 244 -10 l225 0
20 26 c28 35 26 67 -3 101 l-24 28 -214 2 c-117 1 -223 -2 -236 -7z"/>
<path d="M1965 1105 c-16 -15 -25 -36 -25 -55 0 -19 9 -40 25 -55 24 -25 25
-25 229 -25 200 0 205 1 232 23 20 17 27 33 27 57 0 24 -7 40 -27 57 -27 22
-32 23 -232 23 -204 0 -205 0 -229 -25z"/>
<path d="M2774 1107 c-20 -17 -27 -33 -27 -57 0 -24 7 -40 27 -57 l27 -23 385
0 385 0 24 25 c16 15 25 36 25 55 0 19 -9 40 -25 55 l-24 25 -385 0 -385 0
-27 -23z"/>
<path d="M1425 2826 c-105 -49 -160 -135 -159 -251 2 -290 393 -379 520 -118
68 137 9 303 -131 369 -69 33 -161 33 -230 0z m173 -150 c47 -24 70 -88 49
-138 -23 -53 -52 -73 -107 -73 -40 0 -54 5 -79 29 -36 35 -46 74 -31 121 22
66 102 95 168 61z"/>
<path d="M1057 2335 c-20 -7 -43 -18 -51 -24 -28 -24 -378 -572 -385 -603 -10
-47 3 -95 33 -127 35 -37 288 -201 333 -216 39 -14 89 -6 127 18 25 16 369
537 393 595 16 38 10 80 -16 125 -19 34 -322 232 -366 240 -16 3 -47 -1 -68
-8z m205 -257 l88 -58 -24 -38 c-13 -20 -86 -132 -162 -249 l-139 -212 -123
79 -122 80 77 117 c42 65 115 177 162 250 l86 132 35 -21 c19 -12 74 -48 122
-80z"/>
<path d="M4525 3977 c-155 -52 -259 -172 -284 -328 -7 -41 -11 -444 -11 -1144
l0 -1079 167 -391 c91 -214 175 -400 186 -413 25 -27 76 -29 105 -4 11 9 95
192 186 405 l166 389 0 1117 c0 991 -2 1123 -16 1172 -32 109 -119 210 -222
256 -69 31 -212 41 -277 20z m210 -166 c22 -10 55 -33 73 -51 57 -56 66 -84
70 -212 l4 -118 -246 0 -246 0 0 80 c0 43 5 102 11 130 31 144 201 232 334
171z m145 -616 l0 -75 -245 0 -245 0 0 68 c0 38 3 72 7 75 3 4 114 7 245 7
l238 0 0 -75z m-320 -960 l0 -726 -82 3 -83 3 -3 723 -2 722 85 0 85 0 0 -725z
m320 0 l0 -725 -80 0 -80 0 0 725 0 725 80 0 80 0 0 -725z m-70 -952 l-28 -68
-144 -3 -143 -2 -24 57 c-13 32 -25 64 -28 71 -4 9 39 12 196 12 l200 0 -29
-67z m-109 -255 c-5 -13 -21 -50 -36 -83 l-27 -60 -28 61 c-50 110 -52 104 29
104 69 0 70 0 62 -22z"/>
</g>
</svg>
