<?xml version="1.0" standalone="no"?>
<!DOCTYPE svg PUBLIC "-//W3C//DTD SVG 20010904//EN"
 "http://www.w3.org/TR/2001/REC-SVG-20010904/DTD/svg10.dtd">
<svg version="1.0" xmlns="http://www.w3.org/2000/svg"
 width="512.000000pt" height="512.000000pt" viewBox="0 0 512.000000 512.000000"
 preserveAspectRatio="xMidYMid meet">

<g transform="translate(0.000000,512.000000) scale(0.100000,-0.100000)"
fill="#000000" stroke="none">
<path d="M756 4825 c-55 -19 -107 -65 -133 -116 -14 -29 -35 -123 -61 -276
l-39 -233 81 0 81 0 37 218 c34 198 40 219 63 240 14 12 33 22 41 22 15 0
3279 -555 3321 -565 31 -7 63 -44 63 -73 0 -14 -30 -197 -66 -408 l-66 -383
36 -72 c20 -39 36 -78 36 -85 0 -9 11 -14 30 -14 23 0 31 5 35 23 17 77 155
906 155 935 0 89 -63 185 -142 216 -36 15 -370 74 -2173 381 -209 36 -564 96
-790 135 -225 38 -423 70 -440 70 -16 -1 -47 -7 -69 -15z"/>
<path d="M160 4027 c-49 -16 -133 -102 -148 -153 -17 -60 -17 -2328 0 -2388
16 -55 99 -138 154 -154 31 -9 203 -12 658 -12 l616 0 0 80 0 80 -565 0 c-311
0 -565 2 -565 5 0 15 686 790 701 793 15 3 169 -133 377 -332 l52 -50 0 111 0
110 -156 144 c-86 79 -170 152 -187 161 -39 21 -116 23 -162 4 -24 -10 -129
-124 -372 -402 -186 -214 -353 -404 -370 -424 l-32 -35 -1 1133 0 1133 25 24
24 25 1711 0 1711 0 24 -25 c25 -24 25 -24 25 -240 l0 -215 64 0 c35 0 71 -3
80 -6 14 -5 16 18 16 216 0 143 -4 237 -12 262 -6 22 -31 62 -55 88 -78 87 86
80 -1857 79 -1224 -1 -1731 -4 -1756 -12z"/>
<path d="M1945 3215 c-16 -15 -25 -36 -25 -55 0 -19 9 -40 25 -55 23 -24 28
-25 175 -25 147 0 152 1 175 25 16 15 25 36 25 55 0 19 -9 40 -25 55 -23 24
-28 25 -175 25 -147 0 -152 -1 -175 -25z"/>
<path d="M2882 3227 c-57 -21 -142 -104 -142 -139 0 -5 279 -8 620 -8 341 0
620 2 620 5 0 40 -89 126 -149 143 -54 17 -903 15 -949 -1z"/>
<path d="M920 3107 c-19 -6 -58 -34 -85 -62 -71 -70 -91 -145 -63 -239 16 -55
99 -138 154 -154 94 -28 169 -8 239 63 102 101 102 229 0 330 -70 71 -152 91
-245 62z m135 -172 c50 -49 15 -135 -55 -135 -41 0 -80 39 -80 80 0 41 39 80
80 80 19 0 40 -9 55 -25z"/>
<path d="M1844 2911 c-47 -12 -133 -62 -160 -94 -14 -17 -37 -53 -52 -81 l-27
-51 0 -965 0 -965 27 -51 c40 -76 70 -107 140 -145 l63 -34 1525 0 1525 0 63
34 c70 38 100 69 140 145 l27 51 0 965 0 965 -27 51 c-40 76 -70 107 -140 145
l-63 34 -1505 2 c-828 0 -1519 -2 -1536 -6z m3020 -165 c18 -8 46 -31 62 -52
l29 -37 0 -938 c0 -931 0 -938 -21 -965 -11 -15 -33 -37 -48 -48 -27 -21 -28
-21 -1525 -21 l-1498 0 -37 29 c-70 53 -66 -1 -66 1005 0 620 3 919 11 938 14
37 47 73 84 89 46 20 2960 20 3009 0z"/>
<path d="M3245 2593 c-60 -8 -181 -42 -239 -68 -482 -213 -670 -804 -400
-1257 65 -108 194 -237 302 -302 346 -206 789 -151 1073 133 112 112 191 253
235 417 27 103 26 312 -3 419 -92 340 -362 591 -698 650 -81 14 -198 17 -270
8z m247 -167 c102 -20 175 -49 260 -105 101 -66 196 -172 247 -274 61 -124 76
-190 75 -337 -1 -107 -5 -137 -27 -205 -38 -115 -90 -198 -182 -290 -92 -92
-175 -144 -290 -182 -68 -22 -98 -26 -205 -27 -147 -1 -213 14 -337 75 -145
72 -287 228 -343 377 -77 204 -59 439 47 622 47 80 178 213 256 259 152 89
328 120 499 87z"/>
<path d="M3250 2146 c-230 -65 -368 -288 -319 -518 37 -174 180 -309 357 -340
308 -53 575 235 497 535 -22 84 -58 149 -116 207 -108 108 -278 155 -419 116z
m200 -162 c75 -22 149 -98 174 -178 88 -280 -253 -487 -461 -280 -111 111
-111 277 2 389 78 79 174 102 285 69z"/>
<path d="M4425 2495 c-16 -15 -25 -36 -25 -55 0 -19 9 -40 25 -55 23 -24 31
-25 135 -25 104 0 112 1 135 25 16 15 25 36 25 55 0 19 -9 40 -25 55 -23 24
-31 25 -135 25 -104 0 -112 -1 -135 -25z"/>
<path d="M2075 2415 c-16 -15 -25 -36 -25 -55 0 -38 39 -80 74 -80 39 0 79 41
79 80 0 24 -7 40 -27 57 -35 30 -71 29 -101 -2z"/>
<path d="M825 975 c-22 -21 -25 -33 -25 -95 0 -62 3 -74 25 -95 15 -16 36 -25
55 -25 19 0 40 9 55 25 22 21 25 33 25 95 0 62 -3 74 -25 95 -15 16 -36 25
-55 25 -19 0 -40 -9 -55 -25z"/>
<path d="M545 695 c-16 -15 -25 -36 -25 -55 0 -19 9 -40 25 -55 21 -22 33 -25
95 -25 62 0 74 3 95 25 33 32 33 78 0 110 -21 22 -33 25 -95 25 -62 0 -74 -3
-95 -25z"/>
<path d="M1025 695 c-16 -15 -25 -36 -25 -55 0 -19 9 -40 25 -55 21 -22 33
-25 95 -25 62 0 74 3 95 25 33 32 33 78 0 110 -21 22 -33 25 -95 25 -62 0 -74
-3 -95 -25z"/>
<path d="M825 495 c-22 -21 -25 -33 -25 -95 0 -62 3 -74 25 -95 32 -33 78 -33
110 0 22 21 25 33 25 95 0 62 -3 74 -25 95 -15 16 -36 25 -55 25 -19 0 -40 -9
-55 -25z"/>
</g>
</svg>
